<svg width="20" height="20" viewBox="0 0 20 20" fill="none" xmlns="http://www.w3.org/2000/svg">
<path fill-rule="evenodd" clip-rule="evenodd" d="M1.83929 15.1549C1.61844 15.3864 1.49951 15.6569 1.49951 16.019C1.49951 16.3794 1.61843 16.6473 1.83945 16.8764C2.07835 17.124 2.46411 17.352 3.02462 17.5395C4.15321 17.9169 5.76209 18.057 7.59151 18.057C9.42961 18.057 11.0377 17.9118 12.1629 17.5301C12.7215 17.3406 13.1058 17.1108 13.3439 16.8616C13.5647 16.6307 13.6835 16.3606 13.6835 15.999C13.6835 15.639 13.5646 15.3708 13.3433 15.1412C13.1041 14.8931 12.718 14.6647 12.1575 14.4767C11.0288 14.0983 9.41999 13.957 7.59151 13.957C5.75312 13.957 4.14518 14.103 3.02026 14.4853C2.46174 14.6752 2.07744 14.9054 1.83929 15.1549ZM2.53751 13.0652C3.90584 12.6 5.7189 12.457 7.59151 12.457C9.45203 12.457 11.2642 12.5952 12.6343 13.0545C13.3231 13.2855 13.9559 13.6154 14.4232 14.1002C14.9083 14.6034 15.1835 15.2425 15.1835 15.999C15.1835 16.7539 14.9108 17.3931 14.4284 17.898C13.9633 18.3846 13.3327 18.7172 12.6447 18.9506C11.2763 19.4147 9.46341 19.557 7.59151 19.557C5.73093 19.557 3.91881 19.4201 2.54891 18.962C1.86016 18.7317 1.2273 18.4023 0.759886 17.9178C0.274591 17.4147 -0.000488281 16.7756 -0.000488281 16.019C-0.000488281 15.2641 0.271957 14.6246 0.754135 14.1194C1.21902 13.6322 1.84941 13.2991 2.53751 13.0652Z" fill="url(#paint0_linear_4613_2915)"/>
<path fill-rule="evenodd" clip-rule="evenodd" d="M7.59151 2C5.5835 2 3.95551 3.62744 3.95551 5.635C3.95551 7.64256 5.5835 9.27 7.59151 9.27H7.62094C9.61952 9.26189 11.234 7.63582 11.2265 5.6378L11.2265 5.635C11.2265 3.62733 9.59841 2 7.59151 2ZM2.45551 5.635C2.45551 2.79856 4.75552 0.5 7.59151 0.5C10.4261 0.5 12.7257 2.79784 12.7265 5.63346C12.7364 8.46045 10.4517 10.7595 7.62531 10.77L7.62251 10.77H7.59151C4.75552 10.77 2.45551 8.47144 2.45551 5.635Z" fill="url(#paint1_linear_4613_2915)"/>
<path fill-rule="evenodd" clip-rule="evenodd" d="M13.818 2.24242C13.885 1.83366 14.2707 1.55665 14.6795 1.62369C16.6031 1.93917 18.0701 3.60747 18.0701 5.6198L18.0701 5.62115C18.0664 7.66279 16.553 9.34828 14.5875 9.6245C14.1773 9.68215 13.7981 9.39636 13.7404 8.98618C13.6828 8.57599 13.9686 8.19674 14.3787 8.1391C15.615 7.96535 16.5675 6.90317 16.5701 5.61911C16.5698 4.35375 15.6469 3.30239 14.4367 3.10391C14.028 3.03687 13.751 2.65117 13.818 2.24242Z" fill="url(#paint2_linear_4613_2915)"/>
<path fill-rule="evenodd" clip-rule="evenodd" d="M15.8536 12.6219C15.9146 12.2122 16.2962 11.9296 16.7059 11.9906C17.5221 12.1121 18.3068 12.3266 18.9055 12.7195C19.5418 13.137 19.9794 13.7708 19.9794 14.6274C19.9794 15.196 19.785 15.6905 19.4331 16.0882C19.0951 16.4701 18.6419 16.7301 18.1617 16.9125C17.7745 17.0596 17.3414 16.8649 17.1943 16.4777C17.0472 16.0905 17.2419 15.6574 17.6291 15.5103C17.9729 15.3797 18.1867 15.2332 18.3097 15.0941C18.4189 14.9708 18.4794 14.8298 18.4794 14.6274C18.4794 14.364 18.3755 14.1658 18.0826 13.9736C17.752 13.7567 17.2198 13.5837 16.4849 13.4742C16.0752 13.4132 15.7926 13.0316 15.8536 12.6219Z" fill="url(#paint3_linear_4613_2915)"/>
<defs>
<linearGradient id="paint0_linear_4613_2915" x1="-0.000488281" y1="10.0285" x2="19.9794" y2="10.0285" gradientUnits="userSpaceOnUse">
<stop stop-color="#FF758C"/>
<stop offset="1" stop-color="#FF7EB3"/>
</linearGradient>
<linearGradient id="paint1_linear_4613_2915" x1="-0.000488281" y1="10.0285" x2="19.9794" y2="10.0285" gradientUnits="userSpaceOnUse">
<stop stop-color="#FF758C"/>
<stop offset="1" stop-color="#FF7EB3"/>
</linearGradient>
<linearGradient id="paint2_linear_4613_2915" x1="-0.000488281" y1="10.0285" x2="19.9794" y2="10.0285" gradientUnits="userSpaceOnUse">
<stop stop-color="#FF758C"/>
<stop offset="1" stop-color="#FF7EB3"/>
</linearGradient>
<linearGradient id="paint3_linear_4613_2915" x1="-0.000488281" y1="10.0285" x2="19.9794" y2="10.0285" gradientUnits="userSpaceOnUse">
<stop stop-color="#FF758C"/>
<stop offset="1" stop-color="#FF7EB3"/>
</linearGradient>
</defs>
</svg>
