<svg width="50" height="50" viewBox="0 0 50 50" fill="none" xmlns="http://www.w3.org/2000/svg">
<path d="M24.9995 49.9043C38.754 49.9043 49.9041 38.7542 49.9041 24.9996C49.9041 11.2451 38.754 0.0949364 24.9995 0.0949364C11.2449 0.0949364 0.0947266 11.2451 0.0947266 24.9996C0.0947266 38.7542 11.2449 49.9043 24.9995 49.9043Z" fill="#1AB4D7"/>
<path d="M12.0159 24.9281L16.2661 20.6674C16.407 20.5238 16.4856 20.3336 16.4856 20.132C16.4856 19.7117 16.144 19.3704 15.7237 19.3704C15.519 19.3704 15.3271 19.4507 15.1824 19.5972C15.182 19.598 10.936 23.8415 10.936 23.8415L6.67065 19.5908C6.52653 19.4487 6.33555 19.3704 6.13304 19.3704C5.7133 19.3704 5.37158 19.7116 5.37158 20.1314C5.37158 20.3362 5.45334 20.5283 5.6001 20.6732L9.84969 24.9222L5.6023 29.1775C5.45301 29.3245 5.37158 29.5171 5.37158 29.7228C5.37158 30.143 5.7133 30.4839 6.13304 30.4839C6.33589 30.4839 6.52703 30.4052 6.67065 30.2615L10.9294 26.0085L15.172 30.2459C15.3224 30.4015 15.5166 30.4844 15.7237 30.4844C16.1436 30.4844 16.4852 30.143 16.4852 29.7228C16.4852 29.5201 16.4066 29.3296 16.2637 29.186L12.0159 24.9281Z" fill="white"/>
<path d="M37.2827 24.9258C37.2827 25.6888 37.9032 26.3096 38.6672 26.3096C39.4294 26.3096 40.0501 25.6888 40.0501 24.9258C40.0501 24.1625 39.4294 23.5419 38.6672 23.5419C37.9032 23.5419 37.2827 24.1625 37.2827 24.9258Z" fill="white"/>
<path d="M34.658 24.9265C34.658 22.7168 36.4556 20.9188 38.6656 20.9188C40.8745 20.9188 42.6726 22.7168 42.6726 24.9265C42.6726 27.1358 40.8745 28.933 38.6656 28.933C36.4556 28.933 34.658 27.1358 34.658 24.9265ZM33.0815 24.9265C33.0815 28.0051 35.5866 30.5098 38.6656 30.5098C41.7446 30.5098 44.2509 28.0051 44.2509 24.9265C44.2509 21.8476 41.7446 19.3422 38.6656 19.3422C35.5866 19.3422 33.0815 21.8476 33.0815 24.9265Z" fill="white"/>
<path d="M32.6858 19.438L32.4515 19.4373C31.7482 19.4373 31.0698 19.6591 30.5033 20.0957C30.4286 19.7541 30.1232 19.497 29.7595 19.497C29.3409 19.497 29.0054 19.8325 29.0044 20.252C29.0044 20.2535 29.0069 29.6569 29.0069 29.6569C29.008 30.0757 29.3496 30.416 29.7685 30.416C30.1873 30.416 30.5288 30.0757 30.5299 29.656C30.5299 29.6541 30.5302 23.8731 30.5302 23.8731C30.5302 21.9457 30.7064 21.1673 32.3575 20.961C32.5101 20.942 32.6761 20.945 32.6767 20.945C33.1285 20.9295 33.4495 20.619 33.4495 20.1994C33.4495 19.7796 33.1068 19.438 32.6858 19.438Z" fill="white"/>
<path d="M18.0636 24.0076C18.0636 23.9868 18.0652 23.9651 18.0662 23.9437C18.5084 22.196 20.0912 20.9027 21.9762 20.9027C23.8841 20.9027 25.4814 22.2277 25.9009 24.0076H18.0636ZM27.4603 23.8639C27.1322 22.3102 26.2816 21.034 24.9863 20.2144C23.093 19.0124 20.5928 19.0789 18.764 20.3794C17.2722 21.4406 16.4111 23.1766 16.4111 24.9649C16.4111 25.4133 16.4652 25.8659 16.5777 26.3114C17.141 28.5273 19.0459 30.2047 21.317 30.4827C21.9909 30.5643 22.6469 30.5252 23.3261 30.3493C23.9098 30.2073 24.4746 29.9706 24.9951 29.6371C25.5352 29.2898 25.9865 28.832 26.4235 28.2838C26.4323 28.2738 26.4412 28.2649 26.45 28.2543C26.7534 27.8781 26.6971 27.3431 26.3638 27.0877C26.0826 26.8723 25.6107 26.7849 25.2393 27.2605C25.1595 27.3742 25.0705 27.4912 24.9724 27.6082C24.6771 27.9345 24.3108 28.2506 23.8718 28.4958C23.3132 28.7943 22.6766 28.9648 21.9999 28.9686C19.7849 28.944 18.5996 27.3978 18.178 26.2942C18.1044 26.0882 18.0476 25.8744 18.008 25.6543C18.0029 25.6131 17.999 25.5734 17.9975 25.5368C18.4555 25.5368 25.9461 25.5355 25.9461 25.5355C27.0358 25.5126 27.6223 24.7434 27.4603 23.8639Z" fill="white"/>
</svg>
